<svg width="24" height="24" viewBox="0 0 24 24" fill="none" xmlns="http://www.w3.org/2000/svg">
<path d="M19.303 5.337C17.9214 4.70257 16.4621 4.25303 14.963 4C14.772 4.329 14.56 4.775 14.411 5.125C12.8168 4.89167 11.1972 4.89167 9.60299 5.125C9.45399 4.775 9.22999 4.329 9.04999 4C7.54936 4.24939 6.08899 4.69907 4.70799 5.337C1.96099 9.391 1.21799 13.35 1.58999 17.255C3.1997 18.4366 4.99775 19.3373 6.90799 19.919C7.33691 19.3396 7.71689 18.7254 8.04399 18.083C7.41699 17.849 6.82399 17.563 6.24999 17.223C6.39899 17.117 6.54699 17 6.68499 16.883C10.145 18.465 13.892 18.465 17.309 16.883C17.458 17 17.596 17.117 17.744 17.223C17.171 17.563 16.577 17.849 15.951 18.083C16.2778 18.7254 16.6574 19.3395 17.086 19.919C18.997 19.3391 20.7953 18.4383 22.404 17.255C22.861 12.735 21.682 8.807 19.304 5.337M8.51999 14.846C7.47999 14.846 6.63099 13.901 6.63099 12.745C6.63099 11.589 7.45899 10.643 8.52099 10.643C9.57099 10.643 10.431 11.588 10.409 12.745C10.409 13.901 9.57099 14.846 8.51999 14.846ZM15.494 14.845C14.454 14.845 13.604 13.9 13.604 12.744C13.604 11.588 14.432 10.642 15.494 10.642C16.544 10.642 17.404 11.587 17.383 12.744C17.383 13.9 16.555 14.844 15.493 14.844" fill="#D9D9D9"/>
</svg>
