<svg width="24" height="24" viewBox="0 0 24 24" fill="none" xmlns="http://www.w3.org/2000/svg">
<g id="Frame">
<path id="Vector" d="M12.5647 6.60937C9.58341 6.60937 7.17872 9.01406 7.17872 11.9953C7.17872 14.9766 9.58341 17.3812 12.5647 17.3812C15.5459 17.3812 17.9506 14.9766 17.9506 11.9953C17.9506 9.01406 15.5459 6.60937 12.5647 6.60937ZM12.5647 15.4969C10.6381 15.4969 9.0631 13.9266 9.0631 11.9953C9.0631 10.0641 10.6334 8.49374 12.5647 8.49374C14.4959 8.49374 16.0662 10.0641 16.0662 11.9953C16.0662 13.9266 14.4912 15.4969 12.5647 15.4969ZM19.4272 6.38906C19.4272 7.08749 18.8647 7.64531 18.1709 7.64531C17.4725 7.64531 16.9147 7.08281 16.9147 6.38906C16.9147 5.69531 17.4772 5.13281 18.1709 5.13281C18.8647 5.13281 19.4272 5.69531 19.4272 6.38906ZM22.9943 7.66406C22.9147 5.98124 22.5303 4.49062 21.2975 3.26249C20.0693 2.03437 18.5787 1.64999 16.8959 1.56562C15.1615 1.46718 9.9631 1.46718 8.22872 1.56562C6.5506 1.64531 5.05997 2.02968 3.82716 3.25781C2.59435 4.48593 2.21466 5.97656 2.13029 7.65937C2.03185 9.39374 2.03185 14.5922 2.13029 16.3266C2.20997 18.0094 2.59435 19.5 3.82716 20.7281C5.05997 21.9562 6.54591 22.3406 8.22872 22.425C9.9631 22.5234 15.1615 22.5234 16.8959 22.425C18.5787 22.3453 20.0693 21.9609 21.2975 20.7281C22.5256 19.5 22.91 18.0094 22.9943 16.3266C23.0928 14.5922 23.0928 9.39843 22.9943 7.66406ZM20.7537 18.1875C20.3881 19.1062 19.6803 19.8141 18.7568 20.1844C17.374 20.7328 14.0928 20.6062 12.5647 20.6062C11.0365 20.6062 7.7506 20.7281 6.37247 20.1844C5.45372 19.8187 4.74591 19.1109 4.3756 18.1875C3.82716 16.8047 3.95372 13.5234 3.95372 11.9953C3.95372 10.4672 3.83185 7.18124 4.3756 5.80312C4.74122 4.88437 5.44904 4.17656 6.37247 3.80624C7.75529 3.25781 11.0365 3.38437 12.5647 3.38437C14.0928 3.38437 17.3787 3.26249 18.7568 3.80624C19.6756 4.17187 20.3834 4.87968 20.7537 5.80312C21.3022 7.18593 21.1756 10.4672 21.1756 11.9953C21.1756 13.5234 21.3022 16.8094 20.7537 18.1875Z" fill="#D9D9D9"/>
</g>
</svg>
