<svg width="26" height="26" viewBox="0 0 26 26" fill="none" xmlns="http://www.w3.org/2000/svg">
<path opacity="0.5" fill-rule="evenodd" clip-rule="evenodd" d="M23.8334 13.0001C23.8334 18.9833 18.9833 23.8334 13 23.8334C7.01677 23.8334 2.16669 18.9833 2.16669 13.0001C2.16669 7.01683 7.01677 2.16675 13 2.16675C18.9833 2.16675 23.8334 7.01683 23.8334 13.0001Z" fill="#D9D9D9"/>
<path d="M16.8913 10.7283L15.2847 9.12062C14.1873 8.02103 13.6381 7.47178 13.0487 7.60178C12.4594 7.73178 12.1929 8.46195 11.6577 9.92012L11.2959 10.9081C11.1529 11.2981 11.0825 11.492 10.9536 11.6415C10.896 11.7091 10.8305 11.7695 10.7586 11.8214C10.5982 11.9373 10.3989 11.9925 10.0002 12.103C9.10106 12.35 8.65039 12.4735 8.48139 12.7682C8.40819 12.8954 8.37006 13.0397 8.37089 13.1864C8.37306 13.5265 8.70239 13.8559 9.36214 14.5167L9.84639 15.002L8.09139 16.7592C7.93911 16.9118 7.85368 17.1186 7.85388 17.3341C7.85409 17.5497 7.93991 17.7563 8.09248 17.9086C8.24504 18.0609 8.45185 18.1463 8.66741 18.1461C8.88297 18.1459 9.08961 18.0601 9.24189 17.9075L10.9947 16.1514L11.5071 16.6639C12.1712 17.3279 12.5038 17.6605 12.8451 17.6605C12.989 17.6608 13.1306 17.6235 13.2556 17.5522C13.5525 17.3832 13.6771 16.9304 13.9262 16.0247C14.0346 15.626 14.0909 15.4267 14.2057 15.2664C14.2556 15.1961 14.3138 15.1321 14.3791 15.0757C14.5286 14.9457 14.7214 14.8731 15.1081 14.729L16.107 14.3531C17.55 13.8114 18.2715 13.5406 18.3982 12.9524C18.5261 12.3641 17.9811 11.8192 16.8913 10.7283Z" fill="#D9D9D9"/>
</svg>
