<svg width="24" height="25" viewBox="0 0 24 25" fill="none" xmlns="http://www.w3.org/2000/svg">
<g id="Frame">
<g id="Group">
<path id="Vector" opacity="0.5" d="M4 12V6.212C4 5.55 4 5.219 4.055 4.944C4.3 3.73 5.312 2.78 6.607 2.552C6.9 2.5 7.254 2.5 7.96 2.5C8.27 2.5 8.424 2.5 8.572 2.513C9.213 2.569 9.822 2.805 10.317 3.19C10.4705 3.31571 10.6183 3.44817 10.76 3.587L11.2 4C11.853 4.612 12.179 4.918 12.57 5.122C12.784 5.234 13.012 5.322 13.248 5.385C13.678 5.5 14.14 5.5 15.063 5.5H15.362C17.468 5.5 18.52 5.5 19.205 6.077C19.268 6.13 19.328 6.187 19.385 6.245C20 6.887 20 7.875 20 9.848V12" stroke="#D9D9D9" stroke-width="2"/>
<path id="Vector_2" opacity="0.5" d="M10 17.5H14" stroke="#D9D9D9" stroke-width="2" stroke-linecap="round"/>
<path id="Vector_3" d="M3.47705 17.984C3.00005 15.268 2.76005 13.91 3.33905 12.933C3.48705 12.683 3.66905 12.458 3.87905 12.263C4.70405 11.5 6.03805 11.5 8.70505 11.5H15.2951C17.9621 11.5 19.2951 11.5 20.1211 12.263C20.3311 12.458 20.5131 12.683 20.6611 12.933C21.2391 13.91 21.0011 15.268 20.5231 17.983C20.1801 19.939 20.0081 20.917 19.4131 21.565C19.2593 21.7329 19.0864 21.8822 18.8981 22.01C18.1751 22.5 17.2151 22.5 15.2951 22.5H8.70505C6.78505 22.5 5.82505 22.5 5.10205 22.01C4.91365 21.8822 4.74082 21.7329 4.58705 21.565C3.99205 20.917 3.82005 19.939 3.47705 17.984Z" stroke="#D9D9D9" stroke-width="2"/>
</g>
</g>
</svg>
