<svg width="24" height="24" viewBox="0 0 24 24" fill="none" xmlns="http://www.w3.org/2000/svg">
<g id="Frame">
<g id="Group">
<path id="Vector" opacity="0.5" d="M12 22V20" stroke="#D9D9D9" stroke-width="2" stroke-linecap="round"/>
<path id="Vector_2" d="M4 16.562C4.96627 17.6449 6.15075 18.511 7.4756 19.1036C8.80045 19.6961 10.2357 20.0016 11.687 20C17.383 20 22 15.383 22 9.687C22 6.633 20.672 3.888 18.562 2" stroke="#D9D9D9" stroke-width="2" stroke-linecap="round"/>
<path id="Vector_3" opacity="0.5" d="M7 4.553C7.585 5.105 8.79 6.616 8.931 8.237C9.062 9.752 10.027 10.983 11.5 11C12.066 11.006 12.639 10.582 12.637 9.995C12.637 9.813 12.607 9.628 12.563 9.457C12.4883 9.19475 12.5103 8.91438 12.625 8.667C13.082 7.689 13.982 7.426 14.695 6.895C15.011 6.659 15.299 6.411 15.427 6.211C15.777 5.658 16.129 4.553 15.953 4M13.291 17C13.071 16.586 12.764 15.51 13.291 14.517C13.95 13.276 16.145 13.276 16.145 13.276C17.837 13.258 18.447 12.494 18.733 11.814M19 10C19 10.9193 18.8189 11.8295 18.4672 12.6788C18.1154 13.5281 17.5998 14.2997 16.9497 14.9497C16.2997 15.5998 15.5281 16.1154 14.6788 16.4672C13.8295 16.8189 12.9193 17 12 17C11.0807 17 10.1705 16.8189 9.32122 16.4672C8.47194 16.1154 7.70026 15.5998 7.05025 14.9497C6.40024 14.2997 5.88463 13.5281 5.53284 12.6788C5.18106 11.8295 5 10.9193 5 10C5 8.14348 5.7375 6.36301 7.05025 5.05025C8.36301 3.7375 10.1435 3 12 3C13.8565 3 15.637 3.7375 16.9497 5.05025C18.2625 6.36301 19 8.14348 19 10Z" stroke="#D9D9D9" stroke-width="2"/>
<path id="Vector_4" d="M10 22H14" stroke="#D9D9D9" stroke-width="2" stroke-linecap="round"/>
</g>
</g>
</svg>
