<svg width="24" height="24" viewBox="0 0 24 24" fill="none" xmlns="http://www.w3.org/2000/svg">
<g id="solar:hand-stars-line-duotone">
<g id="Group">
<path id="Vector" d="M10.861 3.363C11.368 2.454 11.621 2 12 2C12.379 2 12.632 2.454 13.139 3.363L13.269 3.598C13.414 3.857 13.486 3.986 13.598 4.071C13.71 4.156 13.85 4.188 14.13 4.251L14.384 4.309C15.368 4.531 15.86 4.643 15.977 5.019C16.094 5.395 15.759 5.788 15.088 6.572L14.914 6.775C14.724 6.998 14.629 7.109 14.586 7.247C14.543 7.385 14.557 7.534 14.586 7.831L14.612 8.101C14.714 9.148 14.764 9.671 14.458 9.904C14.152 10.137 13.691 9.924 12.77 9.5L12.531 9.39C12.27 9.27 12.139 9.21 12 9.21C11.861 9.21 11.73 9.27 11.469 9.39L11.23 9.5C10.31 9.925 9.84799 10.137 9.54199 9.904C9.23599 9.671 9.28599 9.148 9.38799 8.102L9.41399 7.831C9.44299 7.534 9.45699 7.385 9.41399 7.247C9.37099 7.109 9.27599 6.997 9.08599 6.775L8.91199 6.572C8.24199 5.788 7.90599 5.395 8.02299 5.019C8.13999 4.643 8.63199 4.531 9.61599 4.309L9.86999 4.251C10.15 4.188 10.29 4.156 10.402 4.071C10.514 3.986 10.586 3.857 10.73 3.598L10.861 3.363ZM19.43 7.682C19.684 7.227 19.81 7 20 7C20.19 7 20.316 7.227 20.57 7.682L20.635 7.799C20.707 7.929 20.743 7.993 20.799 8.036C20.855 8.078 20.925 8.094 21.065 8.126L21.192 8.154C21.684 8.266 21.93 8.321 21.988 8.51C22.047 8.698 21.879 8.894 21.544 9.286L21.457 9.387C21.362 9.499 21.314 9.555 21.293 9.624C21.271 9.692 21.279 9.767 21.293 9.916L21.306 10.051C21.356 10.574 21.382 10.836 21.229 10.952C21.076 11.068 20.846 10.962 20.385 10.75L20.265 10.695C20.135 10.635 20.069 10.605 20 10.605C19.93 10.605 19.865 10.635 19.734 10.695L19.615 10.75C19.155 10.962 18.925 11.068 18.771 10.952C18.618 10.836 18.643 10.574 18.694 10.051L18.707 9.916C18.721 9.766 18.729 9.692 18.707 9.624C18.686 9.554 18.638 9.499 18.543 9.387L18.456 9.286C18.121 8.894 17.953 8.698 18.012 8.51C18.07 8.321 18.316 8.266 18.808 8.154L18.935 8.126C19.075 8.094 19.145 8.078 19.201 8.036C19.257 7.993 19.293 7.928 19.365 7.799L19.43 7.682ZM3.42999 7.682C3.68499 7.227 3.80999 7 3.99999 7C4.18999 7 4.31599 7.227 4.56999 7.682L4.63499 7.799C4.70699 7.929 4.74299 7.993 4.79899 8.036C4.85499 8.078 4.92499 8.094 5.06499 8.126L5.19199 8.154C5.68399 8.266 5.92999 8.321 5.98899 8.51C6.04699 8.698 5.87899 8.894 5.54399 9.286L5.45699 9.387C5.36199 9.499 5.31399 9.555 5.29299 9.624C5.27099 9.692 5.27899 9.767 5.29299 9.916L5.30599 10.051C5.35599 10.574 5.38199 10.836 5.22899 10.952C5.07599 11.068 4.84499 10.962 4.38499 10.75L4.26499 10.695C4.13499 10.635 4.06899 10.605 3.99999 10.605C3.92999 10.605 3.86499 10.635 3.73399 10.695L3.61499 10.75C3.15499 10.962 2.92499 11.068 2.77099 10.952C2.61799 10.836 2.64299 10.574 2.69399 10.051L2.70699 9.916C2.72099 9.766 2.72899 9.692 2.70699 9.624C2.68599 9.554 2.63799 9.499 2.54299 9.387L2.45599 9.286C2.12099 8.894 1.95299 8.698 2.01099 8.51C2.06999 8.321 2.31599 8.266 2.80799 8.154L2.93499 8.126C3.07499 8.094 3.14499 8.078 3.20099 8.036C3.25699 7.993 3.29299 7.928 3.36499 7.799L3.42999 7.682Z" stroke="#D9D9D9" stroke-width="1.5"/>
<path id="Vector_2" opacity="0.5" d="M4 21.388H6.26C7.27 21.388 8.293 21.494 9.276 21.696C11.031 22.0565 12.8368 22.0965 14.606 21.814C15.474 21.674 16.326 21.459 17.098 21.087C17.794 20.75 18.647 20.277 19.22 19.746C19.792 19.216 20.388 18.349 20.81 17.671C21.174 17.089 20.998 16.376 20.424 15.943C20.1015 15.7084 19.7129 15.582 19.314 15.582C18.9151 15.582 18.5265 15.7084 18.204 15.943L16.397 17.308C15.697 17.838 14.932 18.325 14.021 18.47C13.911 18.487 13.796 18.503 13.676 18.517M13.676 18.517C13.6394 18.5212 13.6027 18.5252 13.566 18.529M13.676 18.517C13.8361 18.4737 13.9828 18.3912 14.103 18.277C14.2537 18.1466 14.3767 17.9874 14.4649 17.8087C14.553 17.63 14.6045 17.4355 14.6163 17.2366C14.628 17.0377 14.5998 16.8384 14.5333 16.6506C14.4668 16.4628 14.3633 16.2902 14.229 16.143C14.0987 15.9983 13.9469 15.8745 13.779 15.776C10.982 14.107 6.629 15.378 4 17.243M13.676 18.517C13.6399 18.5249 13.603 18.5289 13.566 18.529M13.566 18.529C12.9629 18.5896 12.3553 18.5909 11.752 18.533" stroke="#D9D9D9" stroke-width="1.5" stroke-linecap="round"/>
</g>
</g>
</svg>
