<svg width="24" height="25" viewBox="0 0 24 25" fill="none" xmlns="http://www.w3.org/2000/svg">
<g id="solar:cloud-download-line-duotone">
<g id="Group">
<path id="Vector" opacity="0.5" d="M6.286 19.2612C3.919 19.2612 2 17.3652 2 15.0262C2 12.6862 3.919 10.7902 6.286 10.7902C6.57 10.7902 6.848 10.8182 7.116 10.8702M7.116 10.8702C6.88111 10.2428 6.7612 9.57818 6.762 8.90823C6.762 5.78923 9.32 3.26123 12.476 3.26123C15.416 3.26123 17.837 5.45523 18.156 8.27623M7.116 10.8702C7.6693 10.9777 8.196 11.1931 8.666 11.5042M14.381 8.28823C14.9934 8.07484 15.6375 7.96632 16.286 7.96723C16.94 7.96723 17.569 8.07623 18.156 8.27623M18.156 8.27623C20.392 9.04123 22 11.1422 22 13.6142C22 16.3212 20.073 18.5842 17.5 19.1342" stroke="#D9D9D9" stroke-width="1.5" stroke-linecap="round"/>
<path id="Vector_2" d="M12 22.2612V16.2612M12 22.2612L14 20.2612M12 22.2612L10 20.2612" stroke="#D9D9D9" stroke-width="1.5" stroke-linecap="round" stroke-linejoin="round"/>
</g>
</g>
</svg>
